<?xml version="1.0" encoding="utf-8"?>
<!-- Generator: Adobe Illustrator 23.0.6, SVG Export Plug-In . SVG Version: 6.00 Build 0)  -->
<svg version="1.1" id="Слой_1" xmlns="http://www.w3.org/2000/svg" xmlns:xlink="http://www.w3.org/1999/xlink" x="0px" y="0px"
	 viewBox="0 0 32 32" style="enable-background:new 0 0 32 32;" xml:space="preserve">
<style type="text/css">
	.st0{fill:#41423F;}
	.st1{fill-rule:evenodd;clip-rule:evenodd;fill:#41423F;}
</style>
<g id="Apps">
	<path class="st0" d="M6,0H2C0.9,0,0,0.9,0,2v4c0,1.1,0.9,2,2,2h4c1.1,0,2-0.9,2-2V2C8,0.9,7.1,0,6,0z M6,6H2V2h4V6z"/>
	<path class="st0" d="M18,0h-4c-1.1,0-2,0.9-2,2v4c0,1.1,0.9,2,2,2h4c1.1,0,2-0.9,2-2V2C20,0.9,19.1,0,18,0z M18,6h-4V2h4V6z"/>
	<path class="st0" d="M30,0h-4c-1.1,0-2,0.9-2,2v4c0,1.1,0.9,2,2,2h4c1.1,0,2-0.9,2-2V2C32,0.9,31.1,0,30,0z M30,6h-4V2h4V6z"/>
	<path class="st1" d="M6,12H2c-1.1,0-2,0.9-2,2v4c0,1.1,0.9,2,2,2h4c1.1,0,2-0.9,2-2v-4C8,12.9,7.1,12,6,12z M6,18H2v-4h4V18z"/>
	<path class="st1" d="M18,12h-4c-1.1,0-2,0.9-2,2v4c0,1.1,0.9,2,2,2h4c1.1,0,2-0.9,2-2v-4C20,12.9,19.1,12,18,12z M18,18h-4v-4h4V18
		z"/>
	<path class="st1" d="M30,12h-4c-1.1,0-2,0.9-2,2v4c0,1.1,0.9,2,2,2h4c1.1,0,2-0.9,2-2v-4C32,12.9,31.1,12,30,12z M30,18h-4v-4h4V18
		z"/>
	<path class="st1" d="M6,24H2c-1.1,0-2,0.9-2,2v4c0,1.1,0.9,2,2,2h4c1.1,0,2-0.9,2-2v-4C8,24.9,7.1,24,6,24z M6,30H2v-4h4V30z"/>
	<path class="st1" d="M18,24h-4c-1.1,0-2,0.9-2,2v4c0,1.1,0.9,2,2,2h4c1.1,0,2-0.9,2-2v-4C20,24.9,19.1,24,18,24z M18,30h-4v-4h4V30
		z"/>
	<path class="st1" d="M30,24h-4c-1.1,0-2,0.9-2,2v4c0,1.1,0.9,2,2,2h4c1.1,0,2-0.9,2-2v-4C32,24.9,31.1,24,30,24z M30,30h-4v-4h4V30
		z"/>
</g>
</svg>
