<?xml version="1.0" encoding="utf-8"?>
<!-- Generator: Adobe Illustrator 23.0.6, SVG Export Plug-In . SVG Version: 6.00 Build 0)  -->
<svg version="1.1" id="Capa_1" xmlns="http://www.w3.org/2000/svg" xmlns:xlink="http://www.w3.org/1999/xlink" x="0px" y="0px"
	 viewBox="0 0 403 79" style="enable-background:new 0 0 403 79;" xml:space="preserve">
<style type="text/css">
	.st0{fill:#E0D763;}
</style>
<g>
	<path class="st0" d="M78,17.6V27l1.4,0.3c0.2-0.4,3.8-9.3,16.8-9.6v8.5c-2.9,0-15.9,0.9-18.1,14.8l0,0.1v34.3h-8.5V17.6H78
		 M96.8,16.9C82.6,16.9,78.7,27,78.7,27V16.9h-10V76h10V41c2.1-13.4,14.6-14.2,17.5-14.2c0.4,0,0.6,0,0.6,0V16.9z"/>
	<path class="st0" d="M123.9,1.9v15l0.7,0.7h14.5v8.7h-14.5l-0.7,0.7v33.9c0,0.3-0.1,2.4,1.4,4.1c1.3,1.5,3.5,2.3,6.5,2.3h7.3v8.2
		c-1,0.1-3,0.3-5.4,0.3c-7,0-18.7-1.6-18.7-12.4V27l-0.7-0.7h-7.8v-8.7h7.8l0.7-0.7V4.6L123.9,1.9 M124.6,0.9l-10.3,3.2v12.8h-8.5
		V27h8.5v36.4c0,11.3,11.9,13.1,19.4,13.1c3.5,0,6.1-0.4,6.1-0.4v-9.6h-8c-7.8,0-7.1-5.6-7.1-5.6V27h15.2V16.9h-15.2V0.9z"/>
	<rect x="151.6" y="16.9" class="st0" width="11.1" height="59.1"/>
	<rect x="237.8" y="16.9" class="st0" width="11.1" height="59.1"/>
	<polygon class="st0" points="170.7,16.9 194.3,76 206.1,76 229.8,16.9 218.6,16.9 200.3,64.1 182,16.9 	"/>
	<path class="st0" d="M35.7,17.6l23.1,57.7H49L30.9,28.5h-1.3L11.4,75.3H1.7l23.2-57.7H35.7z M36.2,16.9H24.4L0.7,76h11.2l18.3-47.2
		L48.5,76h11.2L36.2,16.9z"/>
	<path class="st0" d="M303.9,27.5c0,0-5.2-11.5-21.4-11.5c0,0-19.4-1.8-20.7,16.6c0,0-1.9,13.9,16,17.2c0,0,18,2.2,16.7,11.7
		c0,0-0.4,6.1-11.6,5.6c0,0-10.7,0.3-14.6-8.7l-8.4,4.7c0,0,3.8,14.6,24,14.7c0,0,21.7,0,21.8-19c0,0,0.5-13.3-18.9-16.5
		c0,0-14.4-1.7-14.3-9.8c0,0-0.8-7.1,10.3-7.4c0,0,7.2-0.9,12.8,7.1L303.9,27.5z"/>
	<path class="st0" d="M316.5,16.9V76h11.2V39.5c0,0,0.5-13.7,13.8-13.8c0,0,12.5-0.9,12.9,14.2l0.3,36.1h10.1l-0.1-36.3
		c0,0,0.4-13.9,13-13.9c0,0,13.7-1.6,13.9,13.5V76h10V35.4c0,0,0-20.2-22-19.5c0,0-12.9-0.8-17.9,10.4c0,0-4.5-10.7-17.5-10.4
		c-0.6,0-11.2,0-16.3,8.1v-7.1H316.5z"/>
</g>
</svg>
