<?xml version="1.0" encoding="utf-8"?>
<!-- Generator: Adobe Illustrator 23.0.6, SVG Export Plug-In . SVG Version: 6.00 Build 0)  -->
<svg version="1.1" id="Capa_1" xmlns="http://www.w3.org/2000/svg" xmlns:xlink="http://www.w3.org/1999/xlink" x="0px" y="0px"
	 viewBox="0 0 403 79" style="enable-background:new 0 0 403 79;" xml:space="preserve">
<style type="text/css">
	.st0{fill:#E0D763;}
	.st1{fill:#41423F;}
</style>
<g>
	<path class="st0" d="M69.3,76.4V17.3h10v10.1c0,0,4-10.1,18.1-10.1v10c0,0-15.7-1-18.1,14.2v35H69.3z"/>
	<path class="st0" d="M140.4,76.5c0,0-25.5,3.9-25.5-12.8V4.5l10.3-3.2v60c0,0-0.7,5.6,7.1,5.6h8V76.5z"/>
	<rect x="106.4" y="17.3" class="st0" width="34.1" height="10.1"/>
	<rect x="152.2" y="17.3" class="st1" width="11.1" height="59.1"/>
	<rect x="238.3" y="17.3" class="st1" width="11.1" height="59.1"/>
	<polygon class="st1" points="171.3,17.3 194.9,76.4 206.7,76.4 230.4,17.3 219.2,17.3 200.9,64.5 182.6,17.3 	"/>
	<polygon class="st0" points="60.4,76.4 36.8,17.3 25,17.3 1.3,76.4 12.5,76.4 30.8,29.2 49.1,76.4 	"/>
	<path class="st1" d="M304.5,27.9c0,0-5.2-11.5-21.4-11.5c0,0-19.4-1.8-20.7,16.6c0,0-1.9,13.9,16,17.2c0,0,18,2.2,16.7,11.7
		c0,0-0.4,6.1-11.6,5.6c0,0-10.7,0.3-14.6-8.7l-8.4,4.7c0,0,3.8,14.6,24,14.7c0,0,21.7,0,21.8-19c0,0,0.5-13.3-18.9-16.5
		c0,0-14.4-1.7-14.3-9.8c0,0-0.8-7.1,10.3-7.4c0,0,7.2-0.9,12.8,7.1L304.5,27.9z"/>
	<path class="st1" d="M317.1,17.3v59.1h11.2V39.9c0,0,0.5-13.7,13.8-13.8c0,0,12.5-0.9,12.9,14.2l0.3,36.1h10.1l-0.1-36.3
		c0,0,0.4-13.9,13-13.9c0,0,13.7-1.6,13.9,13.5v36.6h10V35.8c0,0,0-20.2-22-19.5c0,0-12.9-0.8-17.9,10.4c0,0-4.5-10.7-17.5-10.4
		c-0.6,0-11.2,0-16.3,8.1v-7.1H317.1z"/>
</g>
</svg>
